# xmcd
#
# Track frame offsets:
#  150
#  22607
#  45610
#  72195
#  91870
#  115445
#  136939
#  157436
#  190432
#  214321
#  232948
#  252572
#
# Disc length: 3690 seconds
#
# Revision: 2
# Processed by: cddbd v1.5.1PL2 Copyright (c) Steve Scherf et al.
# Submitted via: Collectorz.com_Music_Collector 6.11
#
DISCID=a90e680c
DTITLE=Harmonica Shah - Listen At Me Good
DYEAR=2006
DGENRE=Blues
TTITLE0=The Life Of Every Party
TTITLE1=Standing In The Cold Rain
TTITLE2=Dirty Greasy Work
TTITLE3=Bullets Don't Care
TTITLE4=I've Got To Help My Own Damn Self
TTITLE5=Mister, I Don't Care
TTITLE6=Lies, Lies, Lies
TTITLE7=Motor City Confidential
TTITLE8=The Twelve Year Old Boy
TTITLE9=Detroit Jump
TTITLE10=I Wish A Thief Would Steal All My Burdens and Pain
TTITLE11=Lonesome Graveyard Blues
EXTD=
EXTT0=
EXTT1=
EXTT2=
EXTT3=
EXTT4=
EXTT5=
EXTT6=
EXTT7=
EXTT8=
EXTT9=
EXTT10=
EXTT11=
PLAYORDER=
